<?xml version="1.0" encoding="UTF-8"?>
<svg width="63px" height="35px" viewBox="0 0 63 35" version="1.1" xmlns="http://www.w3.org/2000/svg" xmlns:xlink="http://www.w3.org/1999/xlink">
    <!-- Generator: Sketch 50 (54983) - http://www.bohemiancoding.com/sketch -->
    <title>Shape</title>
    <desc>Created with Sketch.</desc>
    <defs></defs>
    <g id="Page-1" stroke="none" stroke-width="1" fill="none" fill-rule="evenodd">
        <g id="our-writers" transform="translate(-378.000000, -294.000000)" fill="#006FA0" fill-rule="nonzero" stroke="#006FA0">
            <g id="writers" transform="translate(179.000000, 141.000000)">
                <g id="Main-card">
                    <g id="2" transform="translate(179.000000, 154.000000)">
                        <path d="M51.4995764,0 C50.6345745,0 49.7712671,0.103163283 49.0087777,0.361071491 L22.3724809,9.59418534 C22.0166525,9.74893027 21.7116568,9.9028155 21.4574936,10.1100018 C21.2033305,10.317188 21,10.6258182 21,11.0384713 C21,11.4502647 21.2033305,11.7606143 21.4574936,11.9669409 C21.7116568,12.2248491 22.0166525,12.3280123 22.3724809,12.4827573 L34.7248094,16.7640335 L34.7248094,26.4098005 C34.7248094,26.7192904 34.9281399,26.9771986 35.182303,27.0803619 L51.2454133,32.960669 C51.3979111,33.0131103 51.5495618,33.0131103 51.7029069,32.960669 L67.8168498,27.0803619 C68.1218455,26.9771986 68.2743434,26.7192904 68.2743434,26.4098005 L68.2743434,16.7640335 L75.7975723,14.1325101 L75.7975723,19.2906743 C75.0859155,19.6001641 74.5775892,20.3223071 74.5775892,21.1476134 C74.5775892,22.1792462 75.4425911,23.0569938 76.4592436,23.0569938 C77.5267288,23.0569938 78.3900362,22.1792462 78.3900362,21.1476134 C78.3900362,20.3223071 77.88171,19.6001641 77.1709004,19.2906743 L77.1709004,13.6682753 L80.6275191,12.4818976 C80.9833475,12.3271527 81.2883432,12.2239894 81.5425064,11.9660812 C81.7966695,11.7597546 82,11.4494051 82,11.0376116 C82,10.6249585 81.7966695,10.3154686 81.5425064,10.1091421 C81.2883432,9.9028155 80.9833475,9.74807057 80.6275191,9.59332565 L53.9912223,0.360211797 C53.2278857,0.103163283 52.3637311,0 51.4995764,0 L51.4995764,0 Z M51.5004268,1.375 C52.2678914,1.375 53.0370633,1.4770106 53.5484218,1.63216958 L80.3883384,10.8388404 C80.542002,10.8902743 80.542002,10.940851 80.6444444,10.9931421 C80.542002,11.0445761 80.542002,11.09601 80.3883384,11.1474439 L67.6854771,15.5201839 C67.5830346,15.5201839 67.429371,15.5201839 67.3781498,15.6221945 L53.5484218,20.3549719 C52.5239975,20.7150094 50.4751489,20.7150094 49.4507246,20.3549719 L35.6218502,15.5699034 L35.6218502,15.5699034 C35.5194078,15.5699034 35.4673329,15.5184695 35.4169654,15.5184695 L22.6116616,11.1457294 C22.4571443,11.0942955 22.4571443,11.0428616 22.3555556,10.9914277 C22.4571443,10.9391365 22.4571443,10.8885599 22.6116616,10.8885599 L49.4507246,1.63045511 C49.9637904,1.4770106 50.7321086,1.375 51.5004268,1.375 L51.5004268,1.375 Z M67.0888889,17.8758213 L67.0888889,26.2041769 L51.4747455,31.625 L35.9111111,26.2033555 L35.9111111,17.875 L48.956998,22.1623783 C50.4465868,22.6560017 52.501192,22.6560017 53.9907808,22.1623783 L67.0888889,17.8758213 L67.0888889,17.8758213 Z M75.9,20.625 C76.3313131,20.625 76.5777778,20.923913 76.5777778,21.3423913 C76.5777778,21.701087 76.3313131,22 75.9,22 C75.530303,22 75.2222222,21.701087 75.2222222,21.3423913 C75.2222222,20.9229167 75.530303,20.625 75.9,20.625 L75.9,20.625 Z" id="Shape"></path>
                    </g>
                </g>
            </g>
        </g>
    </g>
</svg>