<?xml version="1.0" encoding="UTF-8"?>
<svg width="32px" height="37px" viewBox="0 0 32 37" version="1.1" xmlns="http://www.w3.org/2000/svg" xmlns:xlink="http://www.w3.org/1999/xlink">
    <!-- Generator: Sketch 50 (54983) - http://www.bohemiancoding.com/sketch -->
    <title>icon</title>
    <desc>Created with Sketch.</desc>
    <defs></defs>
    <g id="Page-1" stroke="none" stroke-width="1" fill="none" fill-rule="evenodd">
        <g id="our-writers" transform="translate(-245.000000, -290.000000)" fill="#006FA0" fill-rule="nonzero">
            <g id="writers" transform="translate(179.000000, 141.000000)">
                <g id="Main-card">
                    <g id="1-" transform="translate(30.000000, 149.000000)">
                        <g id="icon" transform="translate(36.000000, 0.000000)">
                            <path d="M21.0530333,4.98206278 C20.4838911,4.98206278 20.0225102,4.53836291 20.0225102,3.99103139 C20.0225102,3.44369987 20.4838911,3 21.0530333,3 L28.8767805,3 C30.6103665,3 32,4.38659889 32,6.07915773 L32,33.9208423 C32,35.6134011 30.6103665,37 28.8767805,37 L7.25225176,37 C5.5186658,37 4.12903226,35.6134011 4.12903226,33.9208423 L4.12903226,22.247636 C4.12903226,21.7003045 4.5904132,21.2566046 5.15955544,21.2566046 C5.72869767,21.2566046 6.19007861,21.7003045 6.19007861,22.247636 L6.19007861,33.9208423 C6.19007861,34.5347641 6.67430919,35.0179372 7.25225176,35.0179372 L28.8767805,35.0179372 C29.4547231,35.0179372 29.9389536,34.5347641 29.9389536,33.9208423 L29.9389536,6.07915773 C29.9389536,5.46523591 29.4547231,4.98206278 28.8767805,4.98206278 L21.0530333,4.98206278 Z M6.19007861,9.10500747 C6.19007861,9.652339 5.72869767,10.0960389 5.15955544,10.0960389 C4.5904132,10.0960389 4.12903226,9.652339 4.12903226,9.10500747 L4.12903226,6.07915773 C4.12903226,4.38659889 5.5186658,3 7.25225176,3 L10.6409513,3 C11.2100935,3 11.6714744,3.44369987 11.6714744,3.99103139 C11.6714744,4.53836291 11.2100935,4.98206278 10.6409513,4.98206278 L7.25225176,4.98206278 C6.67430919,4.98206278 6.19007861,5.46523591 6.19007861,6.07915773 L6.19007861,9.10500747 Z" id="Rectangle-4"></path>
                            <path d="M16.6504062,0.485942821 C16.952932,0.00500456437 17.5954429,-0.144187968 18.0854943,0.152711973 C18.5755458,0.449611915 18.7275653,1.08017436 18.4250395,1.56111262 L7.45541099,19 L0.45919553,14.3621225 C-0.0180418362,14.0457559 -0.143593693,13.4096074 0.178767609,12.9412449 C0.501128911,12.4728824 1.1493317,12.3496654 1.62656907,12.6660319 L6.82219226,16.1102747 L16.6504062,0.485942821 Z" id="Path-3"></path>
                            <path d="M14.4780811,14 C13.8933627,14 13.4193548,13.5522847 13.4193548,13 C13.4193548,12.4477153 13.8933627,12 14.4780811,12 L20.6186931,12 C21.2034115,12 21.6774194,12.4477153 21.6774194,13 C21.6774194,13.5522847 21.2034115,14 20.6186931,14 L14.4780811,14 Z" id="Path-2"></path>
                            <path d="M14.4616348,18.25 C13.8859995,18.25 13.4193548,17.8022847 13.4193548,17.25 C13.4193548,16.6977153 13.8859995,16.25 14.4616348,16.25 L25.7964297,16.25 C26.372065,16.25 26.8387097,16.6977153 26.8387097,17.25 C26.8387097,17.8022847 26.372065,18.25 25.7964297,18.25 L14.4616348,18.25 Z" id="Path-2-Copy-5"></path>
                            <path d="M14.4616348,22.5 C13.8859995,22.5 13.4193548,22.0522847 13.4193548,21.5 C13.4193548,20.9477153 13.8859995,20.5 14.4616348,20.5 L25.7964297,20.5 C26.372065,20.5 26.8387097,20.9477153 26.8387097,21.5 C26.8387097,22.0522847 26.372065,22.5 25.7964297,22.5 L14.4616348,22.5 Z" id="Path-2-Copy-6"></path>
                            <path d="M14.4596843,26.75 C13.8851262,26.75 13.4193548,26.3022847 13.4193548,25.75 C13.4193548,25.1977153 13.8851262,24.75 14.4596843,24.75 L25.7983802,24.75 C26.3729383,24.75 26.8387097,25.1977153 26.8387097,25.75 C26.8387097,26.3022847 26.3729383,26.75 25.7983802,26.75 L14.4596843,26.75 Z" id="Path-2-Copy-3"></path>
                            <path d="M19.6393714,31 C19.054653,31 18.5806452,30.5522847 18.5806452,30 C18.5806452,29.4477153 19.054653,29 19.6393714,29 L25.7799835,29 C26.3647018,29 26.8387097,29.4477153 26.8387097,30 C26.8387097,30.5522847 26.3647018,31 25.7799835,31 L19.6393714,31 Z" id="Path-2-Copy-4"></path>
                        </g>
                    </g>
                </g>
            </g>
        </g>
    </g>
</svg>