<?xml version="1.0" encoding="UTF-8"?>
<svg width="51px" height="44px" viewBox="0 0 51 44" version="1.1" xmlns="http://www.w3.org/2000/svg" xmlns:xlink="http://www.w3.org/1999/xlink">
    <!-- Generator: Sketch 50 (54983) - http://www.bohemiancoding.com/sketch -->
    <title>icon</title>
    <desc>Created with Sketch.</desc>
    <defs></defs>
    <g id="Page-1" stroke="none" stroke-width="1" fill="none" fill-rule="evenodd">
        <g id="our-writers" transform="translate(-520.000000, -284.000000)">
            <g id="writers" transform="translate(179.000000, 141.000000)">
                <g id="Main-card">
                    <g id="3" transform="translate(305.000000, 144.000000)">
                        <g id="icon" transform="translate(38.000000, 0.000000)">
                            <path d="M17.794142,33.0005515 C17.6855913,31.8373771 17.7272272,31.0256084 17.7272272,29.9627325 C18.2699809,29.6863704 19.2424765,27.924291 19.4067896,26.4356876 C19.8335576,26.4017737 20.5064234,25.9976933 20.7034504,24.4022971 C20.8097707,23.5457909 20.3874637,23.0637807 20.1302133,22.9122505 C20.8246406,20.8853542 22.2670271,14.6148918 17.4625419,13.9669199 C16.9681156,13.1241236 15.7019382,12.6976744 14.0565767,12.6976744 C7.47364375,12.8152907 6.67958769,17.5221062 8.12271766,22.9122505 C7.86621079,23.0637807 7.44390382,23.5457909 7.54948056,24.4022971 C7.74725108,25.9976933 8.41937344,26.4017737 8.8461414,26.4356876 C9.009711,27.9235695 10.0208685,29.6863704 10.5651092,29.9627325 C10.5651092,31.0256084 10.6060016,31.8373771 10.4974509,33.0005515 C9.19484204,36.3991566 0.405950009,35.4452381 0,42 L28.252931,42 C27.8477245,35.4452381 19.0967509,36.3991566 17.794142,33.0005515 Z" id="Shape" stroke="#006FA0" stroke-width="2" stroke-linecap="round"></path>
                            <g id="Group" transform="translate(36.442629, 11.000000) scale(-1, 1) translate(-36.442629, -11.000000) translate(23.442629, 0.000000)" fill="#006FA0" fill-rule="nonzero">
                                <path d="M21.4951539,2.63640071 C19.1567022,0.940536319 16.0603601,0.00655852234 12.7762829,0.00655852234 C10.7905638,0.00655852234 8.87382966,0.348633362 7.15152316,0.993468753 C4.05732613,2.3875969 4.05732613,2.3875969 2.52258313,3.97932817 C0.127943757,6.46288557 -2.50083287e-12,10.3462532 1.24996568,12.7291486 C1.8822417,13.8733971 2.82838198,14.9201299 4.05732613,15.8113888 C6.39577785,17.5072532 9.49220573,18.44115 12.7762829,18.44115 C13.4565223,18.44115 14.140108,18.3998092 14.8122821,18.3182624 L20.850694,21.3247922 C21.1933877,21.4896691 21.4474479,21.449382 21.6918124,21.3029059 C21.9448429,21.1512419 22.1069232,20.8956585 22.108725,20.6124335 L22.1426169,15.304194 C24.1341705,13.6242174 25.2258313,11.4783058 25.2258313,9.22385424 C25.2258313,6.72062839 23.9009603,4.38122557 21.4951539,2.63640071 Z M20.7386364,14.3070702 C20.5529605,14.4526546 20.4408171,14.6656002 20.429577,14.8932989 C20.428719,14.9080519 20.4285474,14.9227238 20.4285474,14.9373957 L20.4010907,19.2683712 L15.5085665,16.8324255 C15.3307844,16.704269 15.1010063,16.6417715 14.8622189,16.6751683 C14.1764882,16.771306 13.4746266,16.8200233 12.7761113,16.8200233 C7.92931962,16.8200233 3.82334368,14.5346067 2.49495483,11.4066484 C2.4894635,11.391409 2.48242772,11.376575 2.47582095,11.3614978 C2.19430411,10.6831034 2.04243431,9.96579998 2.04243431,9.22385424 C2.04243431,4.95343085 6.93298509,1.62776629 12.7761113,1.62776629 C18.6192375,1.62776629 23.5097883,5.03538291 23.5097883,9.22385424 C23.5097883,11.1008075 22.5255519,12.9061035 20.7386364,14.3070702 Z" id="Shape" stroke="#006FA0" stroke-width="0.15"></path>
                                <path d="M7.56774938,11.7788114 C7.10335465,11.7788114 6.72688833,11.4224902 6.72688833,10.9829457 C6.72688833,10.5434013 7.10335465,10.1870801 7.56774938,10.1870801 L18.0785124,10.1870801 C18.5429071,10.1870801 18.9193734,10.5434013 18.9193734,10.9829457 C18.9193734,11.4224902 18.5429071,11.7788114 18.0785124,11.7788114 L7.56774938,11.7788114 Z" id="Path-2-Copy-2"></path>
                                <path d="M7.56774938,7.83927649 C7.10335465,7.83927649 6.72688833,7.4829553 6.72688833,7.04341085 C6.72688833,6.6038664 7.10335465,6.24754522 7.56774938,6.24754522 L18.0785124,6.24754522 C18.5429071,6.24754522 18.9193734,6.6038664 18.9193734,7.04341085 C18.9193734,7.4829553 18.5429071,7.83927649 18.0785124,7.83927649 L7.56774938,7.83927649 Z" id="Path-2-Copy"></path>
                            </g>
                        </g>
                    </g>
                </g>
            </g>
        </g>
    </g>
</svg>